<?xml version="1.0" standalone="no"?>
<!DOCTYPE svg PUBLIC "-//W3C//DTD SVG 20010904//EN"
 "http://www.w3.org/TR/2001/REC-SVG-20010904/DTD/svg10.dtd">
<svg version="1.0" xmlns="http://www.w3.org/2000/svg"
 width="512.000000pt" height="512.000000pt" viewBox="0 0 512.000000 512.000000"
 preserveAspectRatio="xMidYMid meet">
<metadata>
Created by potrace 1.14, written by Peter Selinger 2001-2017
</metadata>
<g transform="translate(0.000000,512.000000) scale(0.100000,-0.100000)"
fill="#000000" stroke="none">
<path d="M2405 5105 c-522 -109 -806 -667 -584 -1144 136 -292 415 -472 734
-473 116 0 124 0 221 26 228 59 429 229 528 448 58 128 70 187 70 343 0 124
-3 150 -27 225 -26 85 -86 211 -113 237 -8 8 -14 18 -14 22 0 17 -140 150
-200 191 -71 48 -165 91 -256 115 -77 21 -280 27 -359 10z"/>
<path d="M1630 3307 c-46 -15 -122 -92 -136 -138 -37 -122 35 -256 156 -286
43 -11 1768 -10 1827 1 54 10 125 71 148 128 44 109 -2 230 -107 282 l-51 26
-901 -1 c-633 -1 -911 -4 -936 -12z"/>
<path d="M2099 2658 c0 -29 -2 -60 -3 -68 -2 -8 -6 -51 -10 -96 -36 -459 -247
-967 -574 -1378 -57 -72 -181 -216 -215 -250 -11 -11 -15 -21 -9 -25 11 -7
2550 -7 2557 0 2 3 -17 27 -43 54 -26 28 -72 79 -102 115 -30 36 -58 67 -61
70 -16 14 -175 228 -236 320 -175 260 -312 569 -359 805 -30 154 -39 244 -37
398 l0 107 -453 0 -454 0 -1 -52z"/>
<path d="M1390 673 c-599 -3 -619 -4 -636 -42 -5 -9 -9 -154 -9 -324 l-2 -307
1820 2 1821 3 -1 308 0 309 -25 24 -24 25 -1180 2 c-648 1 -1442 1 -1764 0z"/>
</g>
</svg>
