<?xml version="1.0" encoding="UTF-8"?>
<!-- Generator: visioncortex VTracer 0.6.3 -->
<svg version="1.1" xmlns="http://www.w3.org/2000/svg" width="323" height="127">
<path d="M0 0 C0.66 0 1.32 0 2 0 C2 0.66 2 1.32 2 2 C2.66 2 3.32 2 4 2 C4 2.66 4 3.32 4 4 C3.34 4 2.68 4 2 4 C2 4.99 2 5.98 2 7 C1.34 7 0.68 7 0 7 C0 6.01 0 5.02 0 4 C-0.99 4 -1.98 4 -3 4 C-3 3.34 -3 2.68 -3 2 C-2.01 2 -1.02 2 0 2 C0 1.34 0 0.68 0 0 Z " fill="#000000" transform="translate(18,20)"/>
<path d="M0 0 C2.54 2.37 2.96 3.75 3.56 7.19 C2.4 15.05 -2.28 19.75 -8.5 24.38 C-12.19 26.95 -15.94 29.05 -20 31 C-19.36 31.66 -18.72 32.32 -18.06 33 C-15.53 36.68 -14.64 39.54 -15 44 C-18.76 51.66 -25.44 55.71 -33 59 C-35.89 59.96 -37.92 60.2 -40.94 60.25 C-41.79 60.28 -42.65 60.3 -43.53 60.33 C-46.49 59.93 -47.85 59.05 -50 57 C-50 56.34 -50 55.68 -50 55 C-49.39 55.05 -48.79 55.09 -48.16 55.14 C-39.15 55.53 -31.57 52.86 -24.41 47.36 C-22.13 45.16 -21.01 42.97 -20 40 C-20.39 37.86 -20.39 37.86 -21 36 C-21.84 35.83 -22.69 35.66 -23.55 35.48 C-24.65 35.24 -25.75 35 -26.88 34.75 C-27.97 34.52 -29.06 34.29 -30.18 34.05 C-33 33 -33 33 -34.38 30.89 C-34.59 30.27 -34.79 29.64 -35 29 C-34.17 28.77 -33.33 28.54 -32.47 28.3 C-20.74 24.9 -10.58 20.33 -3 10.38 C-1.89 7.73 -1.76 5.84 -2 3 C-13.3 -0.77 -26.81 5.25 -37 10 C-44.05 13.72 -51.37 18.11 -54 26 C-55.94 25.69 -55.94 25.69 -58 25 C-59 22 -59 22 -57.56 18.69 C-50.14 6.82 -32.43 0.71 -19.42 -2.38 C-12.29 -3.67 -6.23 -4.25 0 0 Z " fill="#000000" transform="translate(267,30)"/>
<path d="M0 0 C2.97 0 5.94 0 9 0 C9 0.99 9 1.98 9 3 C6.03 3 3.06 3 0 3 C0 2.01 0 1.02 0 0 Z " fill="#000000" transform="translate(14,28)"/>
<path d="M0 0 C6.93 0 13.86 0 21 0 C22.32 2.64 21.76 3.55 20.88 6.31 C19.3 10.63 17.97 13.43 14 16 C10.29 16.4 6.71 16.29 3 16 C2.49 14.46 1.99 12.92 1.5 11.38 C1.22 10.52 0.94 9.66 0.66 8.77 C0 6 0 6 0 0 Z M2 5 C3 7 3 7 3 7 Z M3 7 C4 10 4 10 4 10 Z M4 10 C5 12 5 12 5 12 Z " fill="#000000" transform="translate(8,32)"/>
<path d="M0 0 C2.9 2.56 4.78 4.91 6.62 8.31 C6.62 9.63 6.62 10.95 6.62 12.31 C3.26 12.54 -0.02 12.67 -3.38 12.31 C-5.56 10.31 -5.56 10.31 -7.38 8.31 C-11.78 7.85 -13.65 7.83 -17.38 10.31 C-17.82 12.5 -17.82 12.5 -17.74 15.03 C-17.74 15.96 -17.74 16.9 -17.74 17.86 C-17.72 18.83 -17.7 19.81 -17.69 20.81 C-17.69 21.79 -17.69 22.76 -17.7 23.77 C-17.99 29.08 -17.99 29.08 -15.38 33.31 C-12.3 33.93 -9.44 33.97 -6.38 33.31 C-4.99 31.35 -3.65 29.35 -2.38 27.31 C1.11 26.89 3.46 26.73 6.62 28.31 C6.27 34.23 4.92 37.21 0.62 41.31 C-5.34 44.76 -10.91 45.28 -17.55 43.84 C-22.76 42.19 -25.3 39.79 -28.38 35.31 C-29.93 30.64 -29.64 25.95 -29.69 21.06 C-29.73 19.53 -29.73 19.53 -29.78 17.96 C-29.83 11.5 -29.3 7.52 -25.38 2.31 C-18.31 -3.86 -8.12 -4.06 0 0 Z " fill="#000000" transform="translate(51.375,43.6875)"/>
<path d="M0 0 C2.95 2.87 3.94 4.18 4.25 8.31 C4.17 9.2 4.09 10.09 4 11 C0.7 11 -2.6 11 -6 11 C-6.33 9.68 -6.66 8.36 -7 7 C-12.55 5.97 -12.55 5.97 -18 7 C-18.16 9.43 -18.16 9.43 -17 12 C-14.2 13.22 -11.67 14.12 -8.75 14.94 C-2.32 16.73 1.32 18.24 5 24 C6.04 28.02 5.91 32.08 4.11 35.87 C1.15 39.82 -2.36 41.63 -7 43 C-13.35 43.75 -19.41 43.3 -25 40 C-28.43 37.18 -29.89 34.52 -30.81 30.12 C-30.87 29.09 -30.94 28.06 -31 27 C-27.29 26.72 -23.7 26.54 -20 27 C-18.25 29.44 -18.25 29.44 -17 32 C-13.11 32.97 -10.82 33.27 -7 32 C-6.27 29.98 -6.27 29.98 -6 28 C-9.38 26.51 -12.72 25.1 -16.22 23.9 C-25.26 20.74 -25.26 20.74 -28.81 17.19 C-30.66 12.24 -30.93 8.27 -28.88 3.25 C-26.04 -0.15 -22.92 -2.31 -18.75 -3.81 C-12.09 -4.27 -5.66 -3.77 0 0 Z " fill="#000000" transform="translate(173,45)"/>
<path d="M0 0 C-0.31 0.7 -0.62 1.4 -0.94 2.12 C-2.03 5.09 -2.56 7.88 -3 11 C-6 10 -6 10 -8 7 C-11.26 6.08 -13.19 5.68 -16.38 6.94 C-16.91 7.29 -17.45 7.64 -18 8 C-18 9.32 -18 10.64 -18 12 C-17.39 12.17 -16.79 12.34 -16.16 12.52 C-11.58 13.84 -7.04 15.27 -2.56 16.94 C-1.76 17.24 -0.96 17.53 -0.13 17.84 C2.42 19.23 3.52 20.51 5 23 C6.25 27.34 6.32 31.02 4.94 35.31 C1.84 39.61 -1.84 41.97 -7 43 C-14.71 43.95 -20.58 42.4 -27 38 C-29.61 35 -29.96 33.65 -30.19 29.69 C-30.13 28.8 -30.06 27.91 -30 27 C-26.62 26.71 -23.37 26.54 -20 27 C-18.38 29.44 -18.38 29.44 -17 32 C-14.35 32.9 -11.79 33.22 -9 33 C-8.01 32.34 -7.02 31.68 -6 31 C-6 29.68 -6 28.36 -6 27 C-7.24 26.62 -8.48 26.25 -9.76 25.86 C-11.4 25.35 -13.05 24.83 -14.69 24.31 C-15.5 24.07 -16.32 23.82 -17.16 23.57 C-22.24 21.95 -25.64 20.36 -29 16 C-30.53 11.77 -30.29 7.95 -29 3.69 C-25.95 -0.41 -22.52 -2.11 -17.69 -3.81 C-11.32 -4.26 -5.22 -4 0 0 Z " fill="#000000" transform="translate(210,45)"/>
<path d="M0 0 C0.81 0 1.63 0.01 2.47 0.01 C3.28 0.01 4.1 0 4.94 0 C6.97 0.13 6.97 0.13 7.97 1.13 C8.04 4 8.06 6.83 8.03 9.7 C8.03 10.5 8.02 11.31 8.02 12.14 C8.01 14.14 7.99 16.13 7.97 18.13 C12.92 18.13 17.87 18.13 22.97 18.13 C22.96 16.92 22.95 15.7 22.93 14.45 C22.92 12.86 22.92 11.28 22.91 9.7 C22.9 8.89 22.89 8.09 22.88 7.26 C22.87 5.22 22.92 3.18 22.97 1.13 C23.97 0.13 23.97 0.13 25.78 0 C26.5 0 27.22 0.01 27.97 0.01 C28.69 0.01 29.41 0 30.16 0 C31.97 0.13 31.97 0.13 32.97 1.13 C33.06 2.51 33.09 3.9 33.08 5.29 C33.08 6.17 33.08 7.05 33.08 7.95 C33.08 8.91 33.07 9.87 33.07 10.86 C33.06 11.83 33.06 12.81 33.06 13.81 C33.06 16.94 33.04 20.07 33.03 23.2 C33.03 25.31 33.02 27.43 33.02 29.54 C33.01 34.74 32.99 39.94 32.97 45.13 C29.67 45.13 26.37 45.13 22.97 45.13 C22.97 39.52 22.97 33.91 22.97 28.13 C18.02 28.13 13.07 28.13 7.97 28.13 C7.98 29.28 7.99 30.42 8 31.6 C8.01 33.09 8.02 34.58 8.03 36.07 C8.04 36.83 8.05 37.58 8.06 38.36 C8.07 40.28 8.02 42.21 7.97 44.13 C6.97 45.13 6.97 45.13 4.94 45.27 C4.12 45.26 3.31 45.26 2.47 45.26 C1.65 45.26 0.84 45.26 0 45.27 C-2.03 45.13 -2.03 45.13 -3.03 44.13 C-3.13 42.79 -3.16 41.44 -3.16 40.09 C-3.16 39.23 -3.17 38.37 -3.17 37.49 C-3.17 36.56 -3.17 35.62 -3.16 34.66 C-3.17 33.71 -3.17 32.76 -3.17 31.78 C-3.17 29.77 -3.17 27.75 -3.16 25.74 C-3.16 22.65 -3.16 19.55 -3.17 16.46 C-3.17 14.51 -3.17 12.55 -3.16 10.6 C-3.17 9.67 -3.17 8.74 -3.17 7.78 C-3.17 6.92 -3.16 6.06 -3.16 5.18 C-3.16 4.42 -3.16 3.66 -3.16 2.88 C-2.97 0.31 -2.56 0.17 0 0 Z " fill="#000000" transform="translate(66.03125,41.8671875)"/>
<path d="M0 0 C0.68 -0 1.37 -0 2.07 -0 C3.52 -0 4.97 -0 6.42 0 C8.65 0.01 10.87 0 13.1 -0 C14.5 -0 15.91 -0 17.31 0 C18.6 0 19.89 0 21.21 0 C24.16 0.13 24.16 0.13 25.16 1.13 C25.16 4.1 25.16 7.07 25.16 10.13 C17.9 10.13 10.64 10.13 3.16 10.13 C3.16 12.44 3.16 14.75 3.16 17.13 C4.01 17.12 4.01 17.12 4.88 17.12 C7.45 17.1 10.02 17.08 12.59 17.07 C13.94 17.06 13.94 17.06 15.31 17.04 C16.17 17.04 17.02 17.04 17.9 17.04 C19.09 17.03 19.09 17.03 20.3 17.02 C22.16 17.13 22.16 17.13 23.16 18.13 C23.3 20.8 23.2 23.46 23.16 26.13 C20.86 27.28 19.57 27.25 17.02 27.23 C16.22 27.23 15.41 27.22 14.58 27.22 C13.74 27.21 12.9 27.2 12.03 27.2 C11.18 27.19 10.33 27.19 9.46 27.18 C7.36 27.17 5.26 27.15 3.16 27.13 C3.16 30.1 3.16 33.07 3.16 36.13 C10.75 36.13 18.34 36.13 26.16 36.13 C26.16 39.1 26.16 42.07 26.16 45.13 C21.47 45.16 16.79 45.18 12.11 45.19 C10.52 45.19 8.92 45.2 7.33 45.21 C5.04 45.22 2.76 45.23 0.47 45.23 C-0.24 45.24 -0.96 45.24 -1.7 45.25 C-3.41 45.25 -5.13 45.19 -6.84 45.13 C-8.37 43.6 -7.97 42.22 -7.97 40.09 C-7.98 39.23 -7.98 38.37 -7.98 37.49 C-7.98 36.56 -7.98 35.62 -7.98 34.66 C-7.98 33.71 -7.98 32.76 -7.98 31.78 C-7.98 29.77 -7.98 27.75 -7.97 25.74 C-7.97 22.65 -7.97 19.55 -7.98 16.46 C-7.98 14.51 -7.98 12.55 -7.98 10.6 C-7.98 9.67 -7.98 8.74 -7.98 7.78 C-7.98 6.92 -7.98 6.06 -7.97 5.18 C-7.97 4.42 -7.97 3.66 -7.97 2.88 C-7.66 -1.39 -3.36 0 0 0 Z " fill="#000000" transform="translate(113.84375,41.8671875)"/>
<path d="M0 0 C1.32 0.66 2.64 1.32 4 2 C2.84 5.9 1.32 9.47 -0.44 13.12 C-4.71 22.43 -6.42 31.83 -7 42 C-10.88 41.12 -10.88 41.12 -12 40 C-12.33 25.99 -8.15 11.4 0 0 Z " fill="#000000" transform="translate(234,42)"/>
<path d="M0 0 C3.96 0 7.92 0 12 0 C11.67 0.99 11.34 1.98 11 3 C7.37 3 3.74 3 0 3 C0 2.01 0 1.02 0 0 Z " fill="#000000" transform="translate(9,49)"/>
<path d="M0 0 C3.96 0 7.92 0 12 0 C12 0.99 12 1.98 12 3 C8.04 3 4.08 3 0 3 C0 2.01 0 1.02 0 0 Z " fill="#000000" transform="translate(8,53)"/>
<path d="M0 0 C1.98 0 3.96 0 6 0 C6.33 5.94 6.66 11.88 7 18 C4.03 18 1.06 18 -2 18 C-1.86 15.37 -1.71 12.75 -1.56 10.12 C-1.52 9.38 -1.48 8.63 -1.44 7.86 C-1.11 2.23 -1.11 2.23 0 0 Z " fill="#000000" transform="translate(13,57)"/>
<path d="M0 0 C6.51 2.17 6.51 2.17 8.06 4.81 C7.98 7.77 6.97 10.22 6 13 C6.82 12.59 7.64 12.18 8.48 11.76 C18 7 18 7 20.31 5.97 C22.79 4.54 23.17 2.64 24 0 C24.99 0 25.98 0 27 0 C27 0.66 27 1.32 27 2 C27.56 1.67 28.11 1.34 28.69 1 C31.39 -0.17 33.09 -0.37 36 0 C37.81 1.38 37.81 1.38 39 3 C39 3.66 39 4.32 39 5 C37.89 4.9 37.89 4.9 36.75 4.8 C31.95 5.15 29.21 8.64 26 12 C24.48 13.95 23.25 15.86 22 18 C20.68 17.34 19.36 16.68 18 16 C18 15.01 18 14.02 18 13 C17.49 13.37 16.98 13.75 16.46 14.13 C10.88 17.97 10.88 17.97 6.69 18.12 C3.32 16.72 2.54 15.24 1 12 C0.67 11.67 0.34 11.34 0 11 C-1.01 11.78 -1.01 11.78 -2.05 12.57 C-2.94 13.23 -3.83 13.88 -4.75 14.56 C-5.63 15.22 -6.51 15.89 -7.42 16.57 C-10 18 -10 18 -12.33 17.71 C-12.88 17.48 -13.43 17.24 -14 17 C-14.78 14.71 -15.11 13.39 -14.43 11.04 C-11.48 5.18 -7.52 -1.47 0 0 Z " fill="#000000" transform="translate(269,60)"/>
<path d="M0 0 C3.63 0 7.26 0 11 0 C14 5.75 14 5.75 14 8 C14.54 8.27 15.07 8.54 15.62 8.81 C18.42 10.21 21.21 11.6 24 13 C24 13.66 24 14.32 24 15 C14.1 15 4.2 15 -6 15 C-6.33 13.68 -6.66 12.36 -7 11 C-5.36 9.31 -3.69 7.65 -2 6 C-0.66 2.83 -0.66 2.83 0 0 Z " fill="#000000" transform="translate(9,76)"/>
<path d="M0 0 C11.55 0 23.1 0 35 0 C35 0.66 35 1.32 35 2 C23.45 2 11.9 2 0 2 C0 1.34 0 0.68 0 0 Z " fill="#000000" transform="translate(1,92)"/>
</svg>
